<svg width="138" height="57" viewBox="0 0 138 57" fill="none" xmlns="http://www.w3.org/2000/svg">
<path d="M28.1124 46.2177H24.3234V45.3633H32.8792V46.2177H29.0902V56.7143H28.1124V46.2177Z" fill="white"/>
<path d="M38.9088 45.3633H46.2832V46.2583H39.8866V50.6523H45.4683V51.5474H39.8866V55.8599H46.4054V56.755H38.9496V45.3633H38.9088Z" fill="white"/>
<path d="M61.9689 55.0866C61.6837 55.3714 61.3985 55.6155 61.0725 55.8596C60.7466 56.1037 60.3799 56.3071 60.0132 56.4698C59.6466 56.6326 59.2391 56.7546 58.8317 56.836C58.4243 56.9174 57.9761 56.9581 57.5687 56.9581C56.9983 56.9581 56.4687 56.8767 55.9798 56.7546C55.4501 56.6326 55.0019 56.4292 54.5538 56.1444C54.1056 55.9003 53.6982 55.5748 53.3315 55.2086C52.9648 54.8425 52.6389 54.4356 52.3944 54.0288C52.15 53.5812 51.9463 53.1337 51.7833 52.6048C51.6203 52.1166 51.5796 51.5877 51.5796 51.0181C51.5796 50.4485 51.6611 49.9196 51.7833 49.4314C51.9463 48.9432 52.15 48.455 52.3944 48.0074C52.6389 47.5599 52.9648 47.153 53.3315 46.8276C53.6982 46.4614 54.1056 46.1766 54.5538 45.8918C55.0019 45.6477 55.4909 45.4443 55.9798 45.2815C56.5094 45.1595 57.0391 45.0781 57.5687 45.0781C58.465 45.0781 59.2799 45.2409 60.0132 45.607C60.7466 45.9325 61.3985 46.4207 61.9689 46.9903L61.3577 47.6413C60.8688 47.1124 60.3392 46.7055 59.6873 46.4207C59.0354 46.1359 58.3428 45.9732 57.6095 45.9732C56.9168 45.9732 56.265 46.0952 55.6538 46.38C55.0427 46.6241 54.513 46.9903 54.0241 47.4378C53.576 47.8854 53.2093 48.4143 52.9241 49.0245C52.6389 49.6348 52.5167 50.2858 52.5167 51.0181C52.5167 51.7097 52.6389 52.3607 52.9241 53.0116C53.2093 53.6219 53.5352 54.1508 54.0241 54.5983C54.4723 55.0459 55.0019 55.412 55.6538 55.6562C56.265 55.9003 56.9168 56.063 57.6095 56.063C58.3428 56.063 59.0354 55.9003 59.6873 55.6155C60.3392 55.3307 60.9096 54.9238 61.3577 54.3949L61.9689 55.0866Z" fill="white"/>
<path d="M68.9767 45.3633H69.9545V50.6523H77.2066V45.3633H78.1844V56.755H77.2066V51.5474H69.9545V56.755H68.9767V45.3633Z" fill="white"/>
<path d="M94.8483 56.755H94.0335L86.3739 47.1534V56.755H85.3961V45.3633H86.1702L93.8705 55.0056V45.3633H94.8483V56.755Z" fill="white"/>
<path d="M101.326 51.0611C101.326 50.4915 101.408 49.9626 101.53 49.4744C101.693 48.9861 101.897 48.4979 102.141 48.0504C102.385 47.6029 102.711 47.196 103.078 46.8705C103.445 46.5044 103.852 46.2196 104.3 45.9348C104.749 45.6907 105.237 45.4873 105.726 45.3245C106.256 45.2025 106.786 45.1211 107.315 45.1211C107.886 45.1211 108.415 45.2025 108.904 45.3245C109.434 45.4466 109.882 45.65 110.33 45.9348C110.778 46.1789 111.186 46.5044 111.552 46.8705C111.919 47.2367 112.245 47.6435 112.49 48.0504C112.734 48.4979 112.938 48.9455 113.101 49.4744C113.264 49.9626 113.304 50.5322 113.304 51.0611C113.304 51.59 113.223 52.1189 113.101 52.6478C112.938 53.136 112.734 53.6242 112.49 54.0717C112.245 54.5193 111.919 54.9261 111.552 55.2516C111.186 55.6178 110.778 55.9025 110.33 56.1873C109.882 56.4314 109.393 56.6349 108.904 56.7976C108.375 56.9197 107.845 57.001 107.315 57.001C106.745 57.001 106.215 56.9197 105.726 56.7976C105.237 56.6756 104.749 56.4721 104.3 56.1873C103.852 55.9432 103.445 55.6178 103.078 55.2516C102.711 54.8854 102.385 54.4786 102.141 54.0717C101.897 53.6242 101.693 53.1767 101.53 52.6478C101.408 52.1189 101.326 51.59 101.326 51.0611ZM102.304 51.0611C102.304 51.7527 102.426 52.4037 102.711 53.0546C102.997 53.6649 103.323 54.1938 103.811 54.6413C104.26 55.0888 104.789 55.455 105.441 55.6991C106.052 55.9432 106.704 56.106 107.397 56.106C108.089 56.106 108.741 55.9839 109.352 55.6991C109.964 55.455 110.493 55.0888 110.982 54.6413C111.43 54.1938 111.797 53.6649 112.082 53.0546C112.367 52.4443 112.49 51.7934 112.49 51.0611C112.49 50.3694 112.367 49.6778 112.082 49.0675C111.797 48.4572 111.471 47.9283 110.982 47.4808C110.534 47.0333 109.964 46.6671 109.352 46.423C108.741 46.1789 108.089 46.0162 107.397 46.0162C106.704 46.0162 106.052 46.1382 105.441 46.423C104.83 46.6671 104.3 47.0333 103.811 47.4808C103.363 47.9283 102.997 48.4572 102.711 49.0675C102.426 49.6778 102.304 50.3287 102.304 51.0611Z" fill="white"/>
<path d="M77.2879 24.8582V24.8175L77.0027 24.125L77.2064 24.8582H77.2879Z" fill="#CAD429"/>
<path d="M121.208 7.93359H121.167L121.249 8.05627L121.208 7.93359Z" fill="#CAD429"/>
<path d="M21.7564 19.1241C22.5712 18.5138 23.2639 17.7815 23.8342 16.9271C24.4046 16.0727 24.8528 15.137 25.138 14.1199C25.4639 13.0621 25.5862 11.9636 25.5862 10.7837C25.5862 9.19703 25.301 7.73238 24.7306 6.38978C24.1602 5.08787 23.3861 3.9487 22.3675 2.97227C21.3897 2.03652 20.2082 1.30419 18.7822 0.815978C17.397 0.287077 15.8488 0.0429688 14.2191 0.0429688H0V5.25061H6.02986H6.60025H13.9746C14.7487 5.25061 15.5228 5.37267 16.2154 5.65746C16.9081 5.94225 17.5192 6.30841 18.0081 6.79663C18.497 7.28485 18.9044 7.85443 19.1896 8.54607C19.4748 9.23771 19.6378 9.97004 19.6378 10.7837C19.6378 11.5974 19.4748 12.3704 19.1896 13.0214C18.9044 13.713 18.497 14.2826 18.0081 14.7301C17.5192 15.2184 16.9081 15.5845 16.2562 15.8286C15.5636 16.1134 14.8302 16.2355 14.0561 16.2355H12.9968H6.60025H6.02986H0.611135V21.4431H6.02986H6.60025H12.9968L19.4748 32.8755H26.401L19.0674 20.6294C20.0452 20.2633 20.9415 19.7751 21.7564 19.1241Z" fill="#CAD429"/>
<path d="M77.2883 24.8584H77.2068L77.0031 24.126L67.0619 0H60.6654L74.5178 32.9139H79.9773L80.3032 32.1409L77.2883 24.8177V24.8584Z" fill="#CAD429"/>
<path d="M103.281 0L93.5032 23.3937L93.1365 24.8584H93.0143L92.6069 23.3937L88.1252 12.6123H81.8102L90.3253 32.9139H95.8255L109.637 0H103.281Z" fill="#CAD429"/>
<path d="M124.061 0H118.357L104.627 32.9139H111.023L121.168 7.93352H121.209L121.249 8.05557L131.354 32.9139H137.75L124.061 0Z" fill="#CAD429"/>
<path d="M56.1025 0.0429688H31.7793V5.25061H56.1025V0.0429688Z" fill="#CAD429"/>
<path d="M56.1023 13.875H31.7792V19.0826H56.1023V13.875Z" fill="#CAD429"/>
<path d="M56.1023 27.707H31.7792V32.9147H56.1023V27.707Z" fill="#CAD429"/>
</svg>
